<?xml version="1.0" encoding="utf-8"?>
<!-- Generator: Adobe Illustrator 22.0.0, SVG Export Plug-In . SVG Version: 6.00 Build 0)  -->
<svg version="1.1" id="Layer_1" xmlns="http://www.w3.org/2000/svg" xmlns:xlink="http://www.w3.org/1999/xlink" x="0px" y="0px"
	 viewBox="0 0 100 100" style="enable-background:new 0 0 100 100;" xml:space="preserve">
<style type="text/css">
	.st0{fill:url(#SVGID_1_);}
	.st1{fill:url(#SVGID_2_);}
	.st2{fill:url(#SVGID_3_);}
	.st3{fill:url(#SVGID_4_);}
	.st4{fill:url(#SVGID_5_);}
	.st5{opacity:0.9;fill-rule:evenodd;clip-rule:evenodd;fill:#FFFFFF;}
	.st6{opacity:0.9;}
	.st7{fill:#FFFFFF;}
</style>
<g>
	<path class="st7" d="M31.1,78.4c-1,0-1.8,0-2.6,0c-3.8,0-7.6,0-11.3,0C9.1,78.3,2.8,72.1,2.8,64c0-15.6,0-31.2,0-46.8
		c0-8.1,6.2-14.3,14.3-14.3c11.7,0,23.4,0,35.1,0c10,0,20.1,0,30.1,0c6.4,0,11,2.8,13.8,8.6c0.9,1.9,1.2,4,1.2,6.1
		c0,14.4,0,28.9,0,43.3c0,1.9,0,3.9-0.3,5.8c-1.1,6.8-7,11.7-13.9,11.7c-8.6,0-17.1,0-25.7,0c-0.8,0-1.4,0.2-2,0.6
		c-7.8,5.9-15.7,11.8-23.6,17.7c-0.2,0.1-0.4,0.3-0.7,0.5C31.1,90.8,31.1,84.7,31.1,78.4z"/>
</g>
</svg>
