<?xml version="1.0" encoding="utf-8"?>
<!-- Generator: Adobe Illustrator 22.0.0, SVG Export Plug-In . SVG Version: 6.00 Build 0)  -->
<svg version="1.1" id="Layer_1" xmlns="http://www.w3.org/2000/svg" xmlns:xlink="http://www.w3.org/1999/xlink" x="0px" y="0px"
	 viewBox="0 0 100 100" style="enable-background:new 0 0 100 100;" xml:space="preserve">
<style type="text/css">
	.st0{fill:url(#SVGID_1_);}
	.st1{fill:url(#SVGID_2_);}
	.st2{fill:url(#SVGID_3_);}
	.st3{fill:url(#SVGID_4_);}
	.st4{fill:url(#SVGID_5_);}
</style>
<g>
	<linearGradient id="SVGID_1_" gradientUnits="userSpaceOnUse" x1="14.7614" y1="50" x2="85.2386" y2="50">
		<stop  offset="0" style="stop-color:#F3D79E"/>
		<stop  offset="1" style="stop-color:#BC9350"/>
	</linearGradient>
	<path class="st0" d="M85.2,38.5c-0.1,10.2-3.8,19.4-9.2,27.6C69.5,75.9,62,85,54.8,94.2c-2.3,3-5.5,4.4-8.5,1.1
		C33.1,80.6,19.9,65.6,15.6,45.4c-4.2-19.7,8.1-37.8,28.1-42C62.1-0.4,80.3,11.9,84.4,31C85,33.4,85,36,85.2,38.5z M50.2,91.2
		c1.2,0.1,2.5-0.5,3.8-2.2c7.9-10.6,16.4-21.3,21.9-33.4c0.9-1.9,1.7-3.9,2.4-5.9c0.6-1.8,1.8-4.2,1.8-6.1c2.6-11.4-2.7-23.2-12-30
		C57.6,6,44,5.7,33.2,12.7c-10.8,7.1-16.2,20.1-12.7,33.4c2.3,8.8,6.5,17.1,11.6,24.6c2.6,3.8,5.3,7.5,8.3,11.1
		c1.5,1.8,3.1,3.6,4.6,5.5C46.6,89.2,48.4,91,50.2,91.2z"/>
	<linearGradient id="SVGID_2_" gradientUnits="userSpaceOnUse" x1="32.7083" y1="37.4327" x2="67.2705" y2="37.4327">
		<stop  offset="0" style="stop-color:#F3D79E"/>
		<stop  offset="1" style="stop-color:#BC9350"/>
	</linearGradient>
	<path class="st1" d="M49.8,20.1c9.9-0.1,17.5,7.6,17.4,17.5c-0.1,9.3-8.2,17.2-17.4,17.1c-9.2-0.1-17.2-8.2-17.1-17.4
		C32.7,27.7,40.2,20.2,49.8,20.1z M65.5,37.7c0.2-8.2-6.7-15.6-15-15.9c-8.5-0.3-16,6.8-16.2,15.3c-0.1,8.2,6.9,15.4,15.3,15.6
		C58,52.9,65.3,46,65.5,37.7z"/>
</g>
</svg>
