<?xml version="1.0" encoding="utf-8"?>
<!-- Generator: Adobe Illustrator 22.0.0, SVG Export Plug-In . SVG Version: 6.00 Build 0)  -->
<svg version="1.1" id="Layer_1" xmlns="http://www.w3.org/2000/svg" xmlns:xlink="http://www.w3.org/1999/xlink" x="0px" y="0px"
	 viewBox="0 0 100 100" style="enable-background:new 0 0 100 100;" xml:space="preserve">
<style type="text/css">
	.st0{fill:url(#SVGID_1_);}
	.st1{fill:url(#SVGID_2_);}
	.st2{fill:url(#SVGID_3_);}
	.st3{fill:url(#SVGID_4_);}
	.st4{fill:url(#SVGID_5_);}
</style>
<linearGradient id="SVGID_1_" gradientUnits="userSpaceOnUse" x1="17.3088" y1="50" x2="82.6912" y2="50">
	<stop  offset="0" style="stop-color:#F3D79E"/>
	<stop  offset="1" style="stop-color:#BC9350"/>
</linearGradient>
<path class="st0" d="M17.3,49.5c0-12,0-24,0-36c0-8,3.1-11,11.1-11c14.5,0,29.1-0.1,43.6,0c7.3,0,10.5,3.2,10.5,10.4
	c0.1,24.8,0.1,49.5,0,74.3c0,7.3-3.2,10.3-10.5,10.3c-14.7,0-29.5,0-44.2,0c-7.6,0-10.5-3-10.6-10.8C17.3,74.3,17.3,61.9,17.3,49.5z
	 M22.8,49.5c0,8.6,0.1,17.3,0,25.9c-0.1,3.5,1.3,4.9,4.8,4.8c14.9-0.1,29.8-0.1,44.7,0c3.5,0,4.9-1.3,4.9-4.8
	c-0.1-16.9-0.1-33.7,0-50.6c0-3.8-1.3-5.2-5.1-5.1c-14.7,0.2-29.4,0.2-44.1,0c-3.8,0-5.2,1.3-5.2,5.1C23,33.1,22.8,41.3,22.8,49.5z
	 M49.4,17.7c7.6,0,15.3-0.1,22.9,0c2.9,0,5-0.5,4.9-4.1c-0.1-3.1-0.9-5.5-4.5-5.6C57.6,8,42.5,8,27.4,8.1c-3.6,0-4.5,2.4-4.6,5.5
	c-0.1,3.6,1.8,4.2,4.8,4.2C34.9,17.7,42.1,17.7,49.4,17.7z M50.6,82.6c-7.7,0-15.3,0-23,0c-3,0-5,0.7-4.8,4.3
	c0.2,3.2,1.2,5.3,4.8,5.3c14.9,0,29.8,0,44.7,0c3.6,0,4.6-2.1,4.8-5.3c0.2-3.6-1.8-4.3-4.8-4.3C65.1,82.6,57.9,82.6,50.6,82.6z"/>
</svg>
