<?xml version="1.0" encoding="utf-8"?>
<!-- Generator: Adobe Illustrator 22.0.0, SVG Export Plug-In . SVG Version: 6.00 Build 0)  -->
<svg version="1.1" id="Layer_1" xmlns="http://www.w3.org/2000/svg" xmlns:xlink="http://www.w3.org/1999/xlink" x="0px" y="0px"
	 viewBox="0 0 100 100" style="enable-background:new 0 0 100 100;" xml:space="preserve">
<style type="text/css">
	.st0{fill:url(#SVGID_1_);}
	.st1{fill:url(#SVGID_2_);}
	.st2{fill:url(#SVGID_3_);}
	.st3{fill:url(#SVGID_4_);}
	.st4{fill:url(#SVGID_5_);}
</style>
<linearGradient id="SVGID_1_" gradientUnits="userSpaceOnUse" x1="2.75" y1="50" x2="96.5835" y2="50">
	<stop  offset="0" style="stop-color:#F3D79E"/>
	<stop  offset="1" style="stop-color:#BC9350"/>
</linearGradient>
<path class="st0" d="M96.5,29c-0.4,4.6-2.7,8.9-6.1,12.5C75.9,56.7,60.9,71.5,46,86.3c-1.8,1.8-4.5,3.1-7,3.9
	c-7.8,2.3-15.7,4.4-23.6,6.3c-8.2,2-14.3-4.1-12.2-12.4c2-8.1,4.2-16.2,6.7-24.2c0.8-2.6,2.7-5.2,4.7-7.2
	c13.6-13.9,27.3-27.7,41.1-41.6c8.2-8.2,15.2-9.9,24.7-5.9c7.1,3,12.6,9.3,15.3,16.5C96.4,24.1,96.7,26.6,96.5,29z M44.1,74.2
	c-0.7-6.9-4.4-12.8-11.3-16.5c-4-2.1-9.1-3.4-13.4-1.2C15.2,58.6,8.1,69.2,15.3,72c5.8,2.3,9.8,6,11.9,11.9c0.7,2.2,2.1,3.4,4.5,3.5
	C38.9,87.7,44.2,81.1,44.1,74.2z M46.6,63.2c8.8-9,17.5-17.7,25.9-26.5c3.6-3.7-0.3-6.1-2.4-8.1c-2.3-2.2-4.8-5.7-8.7-1.7
	c-5.4,5.6-11,11-16.5,16.6c-3.1,3.1-6.1,6.2-9.2,9.3C39.4,56.4,42.5,59.4,46.6,63.2z M81.7,42c7.5-4.3,10.5-10,9.3-16.9
	C89.7,17,81.8,9.4,73.6,8.3c-6.8-0.9-12.3,2.2-16.1,9.4C71.3,19.8,79.3,27.9,81.7,42z M74.7,37.2C67,44.9,60,52.7,52.1,59.5
	c-5.6,4.8-5,9.5-2.1,16.3c8.6-9,16.8-17.1,24.4-25.8C77.2,46.8,77.8,42.3,74.7,37.2z M61.6,24.5C55.2,22,50.8,23.3,47,26.8
	c-2.7,2.4-5.2,5.2-7.8,7.8c-2.5,2.5-4.9,5-7.3,7.5c-1.2,1.3-2.4,2.5-3.7,3.8c-0.8,0.9-1.7,1.7-2.6,2.5c-0.3,0.2-0.5,0.5-0.6,0.8
	c-0.5,1,0.4,2.1,1.5,2c2.9,0,6.3,0.4,8.8-1.2C44,42.2,52.2,33.7,61.6,24.5z M11,91.2c4.7,1.7,14.7-0.9,14.6-5.3
	c-0.1-5-7-12.6-11.8-11.8c-5.7,1-7.4,11.3-4.9,15.6C9.3,90.4,10,90.9,11,91.2z"/>
</svg>
