<?xml version="1.0" encoding="utf-8"?>
<!-- Generator: Adobe Illustrator 22.0.0, SVG Export Plug-In . SVG Version: 6.00 Build 0)  -->
<svg version="1.1" id="Layer_1" xmlns="http://www.w3.org/2000/svg" xmlns:xlink="http://www.w3.org/1999/xlink" x="0px" y="0px"
	 viewBox="0 0 100 100" style="enable-background:new 0 0 100 100;" xml:space="preserve">
<style type="text/css">
	.st0{fill:url(#SVGID_1_);}
	.st1{fill:url(#SVGID_2_);}
	.st2{fill:url(#SVGID_3_);}
	.st3{fill:url(#SVGID_4_);}
	.st4{fill:url(#SVGID_5_);}
	.st5{opacity:0.9;fill-rule:evenodd;clip-rule:evenodd;fill:#FFFFFF;}
	.st6{opacity:0.9;}
	.st7{fill:#FFFFFF;}
</style>
<path class="st5" d="M60.7,32.3c0-5.5-0.1-10.7,0.1-15.9c0-1.3,0.8-2.5,1.3-3.8c1.4,0.5,3,0.7,4,1.6c9.9,9.2,19.5,18.5,29.4,27.6
	c2.2,2,2.5,3.6,0.2,5.8c-10,9.5-19.9,19.2-30,28.7c-0.9,0.9-2.4,1.2-3.6,1.7c-0.5-1.4-1.4-2.7-1.4-4.1c-0.2-5.2-0.1-10.4-0.1-16
	c-12.8-0.7-24.3,2.1-35,8.7c-7.5,4.6-13.3,10.9-18,18.3c-0.7,1.2-2.5,1.7-3.8,2.5c-0.4-1.5-1.4-3.2-1-4.5
	c5.1-22.2,16.4-39.4,38.9-47.1c4.4-1.5,9.1-2,13.7-2.9C57.1,32.6,58.8,32.5,60.7,32.3z"/>
</svg>
